<svg width="200" height="200" viewBox="0 0 200 200" fill="none" xmlns="http://www.w3.org/2000/svg">
<rect width="200" height="200" rx="100" fill="#E9EBFD"/>
<path d="M121.664 58.8271L92.8298 80.0078L141.064 79.9418C137.764 91.225 131.86 114.622 130.968 117.222C130.176 119.532 128.593 119.862 127.273 119.862H87.2872L80.2929 102.112L60.6299 116.563L69.8676 140.844C83.0422 141.174 113.179 141.61 128.329 140.712C143.479 139.815 149.905 127.186 151.225 120.983C152.721 115.639 156.781 100.397 161.057 82.1852C165.332 63.9738 154.04 59.0251 147.86 58.8271H121.664Z" fill="#090A0A" stroke="black"/>
<path d="M74.4898 58.7549H52.9132L38.001 116.358L55.6845 103.426L59.4456 113.059L79.1086 98.6748L75.2816 89.1072L116.851 58.7549H85.8389L71.5865 69.3782L74.4898 58.7549Z" fill="#3053EC"/>
</svg>
